<svg width="366" height="327" viewBox="0 0 366 327" fill="none" xmlns="http://www.w3.org/2000/svg">
<path d="M294.129 247.48C293.912 246.515 293.567 245.173 293.04 243.529C291.917 240.024 289.962 235.145 286.634 229.621C279.975 218.566 267.829 204.946 245.887 194.585C220 182.361 198.005 191.968 177.301 201.012C177.049 201.122 176.797 201.232 176.544 201.342C155.546 210.511 135.908 218.785 114.285 203.99C95.588 191.198 86.6519 171.399 82.3953 154.734C80.2685 146.408 79.315 138.883 78.8935 133.44C78.6828 130.719 78.6051 128.52 78.58 127.003C78.5675 126.245 78.5681 125.657 78.5719 125.26C78.5737 125.068 78.5762 124.92 78.5783 124.82L150.274 0.639938H293.458L365.05 124.641L294.129 247.48Z" stroke="url(#paint0_linear_59_328)" stroke-width="1.27952"/>
<path d="M285.494 256.115C285.276 255.15 284.932 253.808 284.405 252.164C283.281 248.66 281.327 243.781 277.999 238.256C271.34 227.201 259.193 213.582 237.252 203.22C211.365 190.996 189.37 200.603 168.666 209.647C168.413 209.757 168.161 209.867 167.909 209.977C146.91 219.146 127.273 227.42 105.65 212.626C86.9526 199.833 78.0165 180.034 73.7599 163.37C71.6331 155.043 70.6797 147.518 70.2581 142.075C70.0474 139.354 69.9697 137.155 69.9447 135.638C69.9321 134.88 69.9328 134.292 69.9365 133.896C69.9383 133.703 69.9408 133.556 69.9429 133.455L141.638 9.27507H284.822L356.415 133.276L285.494 256.115Z" stroke="url(#paint1_linear_59_328)" stroke-width="1.27952"/>
<path d="M276.858 264.75C276.641 263.786 276.297 262.444 275.769 260.8C274.646 257.295 272.691 252.416 269.363 246.892C262.704 235.837 250.558 222.217 228.616 211.856C202.729 199.631 180.734 209.239 160.03 218.283C159.778 218.393 159.526 218.503 159.274 218.613C138.275 227.782 118.637 236.055 97.0147 221.261C78.3172 208.468 69.3811 188.669 65.1246 172.005C62.9977 163.679 62.0443 156.154 61.6227 150.711C61.412 147.99 61.3343 145.791 61.3093 144.274C61.2967 143.516 61.2974 142.928 61.3011 142.531C61.3029 142.339 61.3054 142.191 61.3075 142.091L133.003 17.9107H276.187L347.779 141.912L276.858 264.75Z" stroke="url(#paint2_linear_59_328)" stroke-width="1.27952"/>
<path d="M268.223 273.385C268.006 272.421 267.661 271.079 267.134 269.434C266.01 265.93 264.056 261.051 260.728 255.526C254.069 244.471 241.923 230.852 219.981 220.49C194.094 208.266 172.099 217.874 151.395 226.917C151.143 227.027 150.89 227.138 150.638 227.248C129.639 236.417 110.002 244.69 88.3793 229.896C69.6818 217.103 60.7457 197.304 56.4892 180.64C54.3624 172.314 53.4089 164.788 52.9874 159.345C52.7766 156.625 52.699 154.425 52.6739 152.909C52.6614 152.15 52.662 151.563 52.6657 151.166C52.6675 150.973 52.6701 150.826 52.6722 150.725L124.368 26.5454H267.552L339.144 150.547L268.223 273.385Z" stroke="url(#paint3_linear_59_328)" stroke-width="1.27952"/>
<path d="M259.588 282.021C259.37 281.056 259.026 279.714 258.499 278.07C257.375 274.565 255.42 269.686 252.093 264.162C245.433 253.107 233.287 239.487 211.345 229.126C185.459 216.902 163.464 226.509 142.76 235.553C142.507 235.663 142.255 235.773 142.003 235.883C121.004 245.052 101.366 253.326 79.7439 238.531C61.0464 225.739 52.1103 205.94 47.8538 189.276C45.727 180.949 44.7735 173.424 44.352 167.981C44.1412 165.26 44.0636 163.061 44.0385 161.544C44.026 160.786 44.0266 160.198 44.0303 159.801C44.0321 159.609 44.0347 159.462 44.0368 159.361L115.732 35.181H258.916L330.508 159.182L259.588 282.021Z" stroke="url(#paint4_linear_59_328)" stroke-width="1.27952"/>
<path d="M250.952 290.656C250.735 289.692 250.39 288.35 249.863 286.705C248.74 283.201 246.785 278.322 243.457 272.798C236.798 261.743 224.652 248.123 202.71 237.762C176.823 225.537 154.828 235.145 134.124 244.188C133.872 244.299 133.62 244.409 133.368 244.519C112.369 253.688 92.731 261.961 71.1085 247.167C52.411 234.374 43.475 214.575 39.2184 197.911C37.0916 189.585 36.1381 182.06 35.7166 176.617C35.5059 173.896 35.4282 171.697 35.4031 170.18C35.3906 169.422 35.3912 168.834 35.395 168.437C35.3968 168.245 35.3993 168.097 35.4014 167.997L107.097 43.8166H250.281L321.873 167.818L250.952 290.656Z" stroke="url(#paint5_linear_59_328)" stroke-width="1.27952"/>
<path d="M242.317 299.291C242.099 298.327 241.755 296.985 241.228 295.341C240.104 291.836 238.15 286.957 234.822 281.433C228.163 270.378 216.017 256.758 194.075 246.397C168.188 234.172 146.193 243.78 125.489 252.824C125.236 252.934 124.984 253.044 124.732 253.154C103.733 262.323 84.0956 270.596 62.4732 255.802C43.7757 243.009 34.8396 223.21 30.583 206.546C28.4562 198.22 27.5028 190.695 27.0812 185.252C26.8705 182.531 26.7928 180.332 26.7678 178.815C26.7552 178.057 26.7559 177.469 26.7596 177.072C26.7614 176.88 26.7639 176.732 26.766 176.632L98.4614 52.4518H241.646L313.238 176.453L242.317 299.291Z" stroke="url(#paint6_linear_59_328)" stroke-width="1.27952"/>
<path d="M233.682 307.927C233.464 306.963 233.12 305.621 232.593 303.976C231.469 300.472 229.514 295.593 226.186 290.068C219.527 279.013 207.381 265.394 185.439 255.032C159.553 242.808 137.557 252.416 116.853 261.459C116.601 261.569 116.349 261.68 116.097 261.79C95.0979 270.959 75.4602 279.232 53.8378 264.438C35.1403 251.645 26.2042 231.846 21.9477 215.182C19.8208 206.856 18.8674 199.33 18.4458 193.887C18.2351 191.166 18.1574 188.967 18.1324 187.451C18.1198 186.692 18.1205 186.105 18.1242 185.708C18.126 185.515 18.1285 185.368 18.1306 185.267L89.826 61.0874H233.01L304.602 185.089L233.682 307.927Z" stroke="url(#paint7_linear_59_328)" stroke-width="1.27952"/>
<path d="M225.046 316.562C224.829 315.598 224.484 314.256 223.957 312.611C222.834 309.107 220.879 304.228 217.551 298.704C210.892 287.649 198.746 274.029 176.804 263.668C150.917 251.443 128.922 261.051 108.218 270.094C107.966 270.205 107.713 270.315 107.461 270.425C86.4625 279.594 66.8249 287.867 45.2024 273.073C26.5049 260.28 17.5688 240.481 13.3123 223.817C11.1855 215.491 10.232 207.966 9.81045 202.523C9.59972 199.802 9.52204 197.603 9.49699 196.086C9.48446 195.328 9.48508 194.74 9.48881 194.343C9.49061 194.151 9.49314 194.003 9.49525 193.903L81.1906 69.7226H224.375L295.967 193.724L225.046 316.562Z" stroke="url(#paint8_linear_59_328)" stroke-width="1.27952"/>
<path d="M216.411 325.198C216.193 324.233 215.849 322.891 215.322 321.247C214.198 317.743 212.244 312.864 208.916 307.339C202.257 296.284 190.11 282.665 168.168 272.303C142.282 260.079 120.287 269.686 99.5827 278.73C99.3303 278.84 99.0781 278.95 98.826 279.06C77.8271 288.229 58.1895 296.503 36.567 281.709C17.8695 268.916 8.93343 249.117 4.67689 232.453C2.55008 224.126 1.5966 216.601 1.17506 211.158C0.964339 208.437 0.88666 206.238 0.861602 204.721C0.849073 203.963 0.849701 203.376 0.853423 202.979C0.855228 202.786 0.857759 202.639 0.859871 202.538L72.5553 78.3581H215.739L287.332 202.359L216.411 325.198Z" stroke="url(#paint9_linear_59_328)" stroke-width="1.27952"/>
<defs>
<linearGradient id="paint0_linear_59_328" x1="365.789" y1="259.91" x2="61.1265" y2="21.4702" gradientUnits="userSpaceOnUse">
<stop stop-color="#0D57ED"/>
<stop offset="1" stop-color="#6843D8"/>
</linearGradient>
<linearGradient id="paint1_linear_59_328" x1="357.153" y1="268.546" x2="52.4911" y2="30.1053" gradientUnits="userSpaceOnUse">
<stop stop-color="#0D57ED"/>
<stop offset="1" stop-color="#6843D8"/>
</linearGradient>
<linearGradient id="paint2_linear_59_328" x1="348.518" y1="277.181" x2="43.8558" y2="38.7409" gradientUnits="userSpaceOnUse">
<stop stop-color="#0D57ED"/>
<stop offset="1" stop-color="#6843D8"/>
</linearGradient>
<linearGradient id="paint3_linear_59_328" x1="339.883" y1="285.816" x2="35.2204" y2="47.3756" gradientUnits="userSpaceOnUse">
<stop stop-color="#0D57ED"/>
<stop offset="1" stop-color="#6843D8"/>
</linearGradient>
<linearGradient id="paint4_linear_59_328" x1="331.247" y1="294.451" x2="26.585" y2="56.0112" gradientUnits="userSpaceOnUse">
<stop stop-color="#0D57ED"/>
<stop offset="1" stop-color="#6843D8"/>
</linearGradient>
<linearGradient id="paint5_linear_59_328" x1="322.612" y1="303.087" x2="17.9496" y2="64.6468" gradientUnits="userSpaceOnUse">
<stop stop-color="#0D57ED"/>
<stop offset="1" stop-color="#6843D8"/>
</linearGradient>
<linearGradient id="paint6_linear_59_328" x1="313.976" y1="311.722" x2="9.31424" y2="73.282" gradientUnits="userSpaceOnUse">
<stop stop-color="#0D57ED"/>
<stop offset="1" stop-color="#6843D8"/>
</linearGradient>
<linearGradient id="paint7_linear_59_328" x1="305.341" y1="320.358" x2="0.678853" y2="81.9176" gradientUnits="userSpaceOnUse">
<stop stop-color="#0D57ED"/>
<stop offset="1" stop-color="#6843D8"/>
</linearGradient>
<linearGradient id="paint8_linear_59_328" x1="296.706" y1="328.993" x2="-7.95652" y2="90.5528" gradientUnits="userSpaceOnUse">
<stop stop-color="#0D57ED"/>
<stop offset="1" stop-color="#6843D8"/>
</linearGradient>
<linearGradient id="paint9_linear_59_328" x1="288.07" y1="337.629" x2="-16.5919" y2="99.1884" gradientUnits="userSpaceOnUse">
<stop stop-color="#0D57ED"/>
<stop offset="1" stop-color="#6843D8"/>
</linearGradient>
</defs>
</svg>
