<svg width="128" height="25" viewBox="0 0 128 25" fill="none" xmlns="http://www.w3.org/2000/svg">
<path d="M11.16 24.448C9.02667 24.448 7.128 23.968 5.464 23.008C3.8 22.0373 2.49333 20.6827 1.544 18.944C0.594667 17.1947 0.12 15.1467 0.12 12.8C0.12 10.4533 0.594667 8.41067 1.544 6.672C2.49333 4.92267 3.8 3.568 5.464 2.608C7.128 1.63733 9.02667 1.152 11.16 1.152C13.2933 1.152 15.192 1.63733 16.856 2.608C18.52 3.568 19.8267 4.92267 20.776 6.672C21.7253 8.41067 22.2 10.4533 22.2 12.8C22.2 15.1467 21.7253 17.1947 20.776 18.944C19.8267 20.6827 18.52 22.0373 16.856 23.008C15.192 23.968 13.2933 24.448 11.16 24.448ZM11.16 20.48C12.6533 20.48 13.9013 20.1493 14.904 19.488C15.9067 18.8267 16.6587 17.92 17.16 16.768C17.6613 15.6053 17.912 14.2827 17.912 12.8C17.912 11.3173 17.6613 10 17.16 8.848C16.6587 7.68533 15.9067 6.77333 14.904 6.112C13.9013 5.45067 12.6533 5.12 11.16 5.12C9.66667 5.12 8.41867 5.45067 7.416 6.112C6.41333 6.77333 5.66133 7.68533 5.16 8.848C4.65867 10 4.408 11.3173 4.408 12.8C4.408 14.2827 4.65867 15.6053 5.16 16.768C5.66133 17.92 6.41333 18.8267 7.416 19.488C8.41867 20.1493 9.66667 20.48 11.16 20.48ZM29.0458 24.32C28.0964 24.32 27.3178 24.1333 26.7098 23.76C26.1124 23.376 25.6698 22.8693 25.3818 22.24C25.0938 21.6 24.9498 20.896 24.9498 20.128V-1.90735e-06H28.9178V18.496C28.9178 19.3493 28.9658 19.9573 29.0618 20.32C29.1684 20.672 29.3604 20.8853 29.6378 20.96C29.9151 21.024 30.3151 21.056 30.8378 21.056L30.4858 24.32H29.0458ZM40.4638 24.32C38.7251 24.32 37.2424 23.9413 36.0158 23.184C34.7891 22.4267 33.8504 21.4187 33.1998 20.16C32.5598 18.9013 32.2398 17.5253 32.2398 16.032C32.2398 14.528 32.5598 13.1413 33.1998 11.872C33.8504 10.6027 34.7891 9.58933 36.0158 8.832C37.2424 8.064 38.7251 7.68 40.4638 7.68C42.2024 7.68 43.6851 8.064 44.9118 8.832C46.1384 9.58933 47.0718 10.6027 47.7118 11.872C48.3624 13.1413 48.6878 14.528 48.6878 16.032C48.6878 17.5253 48.3624 18.9013 47.7118 20.16C47.0718 21.4187 46.1384 22.4267 44.9118 23.184C43.6851 23.9413 42.2024 24.32 40.4638 24.32ZM40.4638 21.056C41.7971 21.056 42.8211 20.592 43.5358 19.664C44.2611 18.7253 44.6238 17.5147 44.6238 16.032C44.6238 14.528 44.2611 13.3067 43.5358 12.368C42.8211 11.4187 41.7971 10.944 40.4638 10.944C39.1411 10.944 38.1171 11.4187 37.3918 12.368C36.6664 13.3067 36.3038 14.528 36.3038 16.032C36.3038 17.5147 36.6664 18.7253 37.3918 19.664C38.1171 20.592 39.1411 21.056 40.4638 21.056ZM51.4498 24V8H55.1618L55.2578 9.696C55.6631 9.248 56.2338 8.8 56.9698 8.352C57.7058 7.904 58.5111 7.68 59.3858 7.68C59.6418 7.68 59.8764 7.70133 60.0898 7.744L59.8018 11.648C59.5671 11.584 59.3324 11.5413 59.0978 11.52C58.8738 11.4987 58.6498 11.488 58.4258 11.488C57.7538 11.488 57.1404 11.6427 56.5858 11.952C56.0311 12.2613 55.6418 12.64 55.4178 13.088V24H51.4498ZM69.443 24.32C67.5123 24.32 65.9017 23.936 64.611 23.168C63.331 22.3893 62.371 21.3653 61.731 20.096C61.091 18.816 60.771 17.4187 60.771 15.904C60.771 14.4427 61.0697 13.0933 61.667 11.856C62.275 10.6187 63.1603 9.62667 64.323 8.88C65.4857 8.12267 66.9043 7.744 68.579 7.744C70.115 7.744 71.395 8.05867 72.419 8.688C73.443 9.31733 74.211 10.16 74.723 11.216C75.235 12.2613 75.491 13.4187 75.491 14.688C75.491 15.04 75.4697 15.3973 75.427 15.76C75.3843 16.112 75.3203 16.48 75.235 16.864H64.899C65.0483 17.856 65.3577 18.6613 65.827 19.28C66.307 19.888 66.8883 20.336 67.571 20.624C68.2643 20.912 69.0057 21.056 69.795 21.056C70.723 21.056 71.587 20.9387 72.387 20.704C73.187 20.4587 73.923 20.1387 74.595 19.744L74.787 23.104C74.179 23.424 73.4217 23.7067 72.515 23.952C71.6083 24.1973 70.5843 24.32 69.443 24.32ZM64.995 14.176H71.459C71.459 13.696 71.3683 13.216 71.187 12.736C71.0057 12.2453 70.7017 11.8347 70.275 11.504C69.859 11.1733 69.2937 11.008 68.579 11.008C67.555 11.008 66.7497 11.3067 66.163 11.904C65.5763 12.5013 65.187 13.2587 64.995 14.176ZM78.1998 24V8H81.9118L82.0718 10.976L81.1438 9.76C81.7518 9.248 82.4771 8.784 83.3198 8.368C84.1624 7.952 85.1438 7.744 86.2638 7.744C88.3118 7.744 89.8318 8.42667 90.8238 9.792C91.8158 11.1467 92.3118 12.9067 92.3118 15.072V24H88.3438V15.392C88.3438 13.8987 88.0931 12.7947 87.5918 12.08C87.1011 11.3653 86.2958 11.008 85.1758 11.008C84.2691 11.008 83.5278 11.232 82.9518 11.68C82.3758 12.1173 81.8691 12.704 81.4318 13.44L82.1678 11.488V24H78.1998Z" fill="#0D2C69"/>
<path d="M115.876 18.688H106.5V15.104H115.876V18.688ZM110.66 5.6H111.716L105.252 24H101.284L109.252 1.6H113.124L121.092 24H117.124L110.66 5.6ZM123.652 24V1.6H127.748V24H123.652Z" fill="url(#paint0_linear_42_87)"/>
<defs>
<linearGradient id="paint0_linear_42_87" x1="-6.62791" y1="32" x2="6.18647" y2="-31.9933" gradientUnits="userSpaceOnUse">
<stop stop-color="#0D57ED"/>
<stop offset="1" stop-color="#6843D8"/>
</linearGradient>
</defs>
</svg>
